<?xml version="1.0" encoding="UTF-8"?>
<svg version="1.1" xmlns="http://www.w3.org/2000/svg" width="100" height="100">
<path d="M0 0 C33 0 66 0 100 0 C100 33 100 66 100 100 C67 100 34 100 0 100 C0 67 0 34 0 0 Z " fill="#0E0D34" transform="translate(0,0)"/>
<path d="M0 0 C1.32 0.33 2.64 0.66 4 1 C4.33 5.29 4.66 9.58 5 14 C7.31 14 9.62 14 12 14 C12.33 12.68 12.66 11.36 13 10 C15.64 10 18.28 10 21 10 C23.41884111 14.71339394 23.26762792 19.02468972 23.1875 24.1875 C23.17960449 25.05938965 23.17170898 25.9312793 23.16357422 26.82958984 C23.08538905 32.93133678 22.90714354 39.0293292 22.625 45.125 C22.5943042 45.8883667 22.5636084 46.6517334 22.53198242 47.43823242 C22.23751136 52.76248864 22.23751136 52.76248864 20 55 C17.86108398 55.24291992 17.86108398 55.24291992 15.24609375 55.23046875 C13.84133789 55.22756836 13.84133789 55.22756836 12.40820312 55.22460938 C10.93770508 55.20624023 10.93770508 55.20624023 9.4375 55.1875 C8.45330078 55.18685547 7.46910156 55.18621094 6.45507812 55.18554688 C-0.85982468 55.14017532 -0.85982468 55.14017532 -2 54 C-2.14386104 52.67113927 -2.22676288 51.33551413 -2.28125 50 C-2.31863281 49.195625 -2.35601562 48.39125 -2.39453125 47.5625 C-2.46484375 45.85416667 -2.53515625 44.14583333 -2.60546875 42.4375 C-2.64285156 41.633125 -2.68023437 40.82875 -2.71875 40 C-2.76418945 38.88625 -2.76418945 38.88625 -2.81054688 37.75 C-2.81792413 35.97311145 -2.81792413 35.97311145 -4 35 C-4.25068786 31.90368897 -4.18522508 28.79276314 -4.1875 25.6875 C-4.20586914 24.38522461 -4.20586914 24.38522461 -4.22460938 23.05664062 C-4.22654297 22.21681641 -4.22847656 21.37699219 -4.23046875 20.51171875 C-4.23457764 19.74303467 -4.23868652 18.97435059 -4.24291992 18.18237305 C-3.96985456 15.7291758 -3.15416452 14.16203437 -2 12 C-1.58377819 9.21791294 -1.58377819 9.21791294 -1.4375 6.3125 C-1.09915014 1.09915014 -1.09915014 1.09915014 0 0 Z " fill="#46618D" transform="translate(41,10)"/>
<path d="M0 0 C1.32 0.33 2.64 0.66 4 1 C4.33 5.29 4.66 9.58 5 14 C7.31 14 9.62 14 12 14 C12.33 12.68 12.66 11.36 13 10 C15.64 10 18.28 10 21 10 C23.41884111 14.71339394 23.26762792 19.02468972 23.1875 24.1875 C23.17960449 25.05938965 23.17170898 25.9312793 23.16357422 26.82958984 C23.08538905 32.93133678 22.90714354 39.0293292 22.625 45.125 C22.5943042 45.8883667 22.5636084 46.6517334 22.53198242 47.43823242 C22.23751136 52.76248864 22.23751136 52.76248864 20 55 C17.86108398 55.24291992 17.86108398 55.24291992 15.24609375 55.23046875 C13.84133789 55.22756836 13.84133789 55.22756836 12.40820312 55.22460938 C10.93770508 55.20624023 10.93770508 55.20624023 9.4375 55.1875 C8.45330078 55.18685547 7.46910156 55.18621094 6.45507812 55.18554688 C-0.85982468 55.14017532 -0.85982468 55.14017532 -2 54 C-2.14386104 52.67113927 -2.22676288 51.33551413 -2.28125 50 C-2.31863281 49.195625 -2.35601562 48.39125 -2.39453125 47.5625 C-2.46484375 45.85416667 -2.53515625 44.14583333 -2.60546875 42.4375 C-2.64285156 41.633125 -2.68023437 40.82875 -2.71875 40 C-2.76418945 38.88625 -2.76418945 38.88625 -2.81054688 37.75 C-2.81792413 35.97311145 -2.81792413 35.97311145 -4 35 C-4.25068786 31.90368897 -4.18522508 28.79276314 -4.1875 25.6875 C-4.20586914 24.38522461 -4.20586914 24.38522461 -4.22460938 23.05664062 C-4.22654297 22.21681641 -4.22847656 21.37699219 -4.23046875 20.51171875 C-4.23457764 19.74303467 -4.23868652 18.97435059 -4.24291992 18.18237305 C-3.96985456 15.7291758 -3.15416452 14.16203437 -2 12 C-1.58377819 9.21791294 -1.58377819 9.21791294 -1.4375 6.3125 C-1.09915014 1.09915014 -1.09915014 1.09915014 0 0 Z M-2 15 C-2 16.98 -2 18.96 -2 21 C5.26 21 12.52 21 20 21 C19.05800924 21 18.11602746 20.99231739 17.17407227 20.98413086 C14.63689313 20.96337523 12.09973077 20.95037934 9.5625 20.9375 C8.67755859 20.92912109 7.79261719 20.92074219 6.88085938 20.91210938 C6.03458984 20.90888672 5.18832031 20.90566406 4.31640625 20.90234375 C3.53724854 20.89710693 2.75809082 20.89187012 1.95532227 20.88647461 C-0.08007834 20.87561464 -0.08007834 20.87561464 -2 22 C-2 23.65 -2 25.3 -2 27 C0.40059817 28.20029908 1.89360649 28.11459743 4.5703125 28.09765625 C5.37742676 28.09515869 6.18454102 28.09266113 7.01611328 28.09008789 C8.0420459 28.08098389 9.06797852 28.07187988 10.125 28.0625 C13.38375 28.041875 16.6425 28.02125 20 28 C9.11 28.495 9.11 28.495 -2 29 C-1.67 36.92 -1.34 44.84 -1 53 C-0.67 53 -0.34 53 0 53 C0.33 49.37 0.66 45.74 1 42 C1.33 42 1.66 42 2 42 C2 45.63 2 49.26 2 53 C7.28 53 12.56 53 18 53 C18 51.370625 18 49.74125 18 48.0625 C18 46.04166667 18 44.02083333 18 42 C18.33 45.63 18.66 49.26 19 53 C19.33 53 19.66 53 20 53 C20.06058594 51.71222656 20.12117188 50.42445312 20.18359375 49.09765625 C20.26798247 47.41925841 20.3526313 45.74087364 20.4375 44.0625 C20.47681641 43.21236328 20.51613281 42.36222656 20.55664062 41.48632812 C20.59853516 40.67744141 20.64042969 39.86855469 20.68359375 39.03515625 C20.72025146 38.2862915 20.75690918 37.53742676 20.79467773 36.76586914 C21 35 21 35 22 34 C22.08631874 32.65732587 22.10706473 31.31025678 22.09765625 29.96484375 C22.09282227 28.75151367 22.09282227 28.75151367 22.08789062 27.51367188 C22.07951172 26.66353516 22.07113281 25.81339844 22.0625 24.9375 C22.05798828 24.08349609 22.05347656 23.22949219 22.04882812 22.34960938 C22.03700373 20.23304337 22.01906769 18.11651315 22 16 C21.01 15.67 20.02 15.34 19 15 C19 15.99 19 16.98 19 18 C18.67 17.01 18.34 16.02 18 15 C11.4 15 4.8 15 -2 15 Z " fill="#7398C7" transform="translate(41,10)"/>
<path d="M0 0 C6.27 0 12.54 0 19 0 C19 2.97 19 5.94 19 9 C18.34 9.66 17.68 10.32 17 11 C17.33 11.33 17.66 11.66 18 12 C18.14257189 15.33618231 18.04228157 18.65975606 18 22 C12.72 22 7.44 22 2 22 C2.06510417 18.94010417 2.13020833 15.88020833 2.1953125 12.8203125 C2.30060534 9.8628949 2.30060534 9.8628949 0 8 C0 5.36 0 2.72 0 0 Z " fill="#658DB4" transform="translate(41,41)"/>
<path d="M0 0 C1.134375 0.020625 2.26875 0.04125 3.4375 0.0625 C3.4375 1.3825 3.4375 2.7025 3.4375 4.0625 C2.4475 4.3925 1.4575 4.7225 0.4375 5.0625 C1.4275 5.7225 2.4175 6.3825 3.4375 7.0625 C4.0975 4.7525 4.7575 2.4425 5.4375 0.0625 C8.7375 0.0625 12.0375 0.0625 15.4375 0.0625 C15.4375 1.0525 15.4375 2.0425 15.4375 3.0625 C13.4575 3.0625 11.4775 3.0625 9.4375 3.0625 C9.4375 3.7225 9.4375 4.3825 9.4375 5.0625 C10.7575 5.0625 12.0775 5.0625 13.4375 5.0625 C13.7675 8.0325 14.0975 11.0025 14.4375 14.0625 C8.10416667 14.0625 1.77083333 14.0625 -4.5625 14.0625 C-4.8925 13.0725 -5.2225 12.0825 -5.5625 11.0625 C-3.9125 11.0625 -2.2625 11.0625 -0.5625 11.0625 C-0.5625 10.4025 -0.5625 9.7425 -0.5625 9.0625 C-1.8825 8.4025 -3.2025 7.7425 -4.5625 7.0625 C-4.60504356 5.06295254 -4.60330783 3.06208364 -4.5625 1.0625 C-3.5625 0.0625 -3.5625 0.0625 0 0 Z " fill="#CBD1DA" transform="translate(57.5625,70.9375)"/>
<path d="M0 0 C2.47923801 -0.02685095 4.9581884 -0.04676547 7.4375 -0.0625 C8.14455078 -0.07087891 8.85160156 -0.07925781 9.58007812 -0.08789062 C11.38693559 -0.09653588 13.19387603 -0.05220011 15 0 C16 1 16 1 16.09765625 3.28515625 C16.06510417 5.85677083 16.03255208 8.42838542 16 11 C10.72 11 5.44 11 0 11 C0 7.37 0 3.74 0 0 Z " fill="#0E0B37" transform="translate(43,52)"/>
<path d="M0 0 C0.33 0 0.66 0 1 0 C1.33 1.65 1.66 3.3 2 5 C8.93 5 15.86 5 23 5 C23 5.99 23 6.98 23 8 C22.67 7.34 22.34 6.68 22 6 C15.73 6 9.46 6 3 6 C2.34 7.98 1.68 9.96 1 12 C8.59 12 16.18 12 24 12 C23.67 12.66 23.34 13.32 23 14 C15.74 14 8.48 14 1 14 C1.66 18.29 2.32 22.58 3 27 C3.99 27 4.98 27 6 27 C5.67 27.33 5.34 27.66 5 28 C4.76636119 29.84891946 4.58696365 31.70488031 4.4375 33.5625 C4.35371094 34.57441406 4.26992188 35.58632813 4.18359375 36.62890625 C4.09271484 37.80259766 4.09271484 37.80259766 4 39 C3.01 39 2.02 39 1 39 C0.93941406 37.71222656 0.87882812 36.42445312 0.81640625 35.09765625 C0.73201753 33.41925841 0.6473687 31.74087364 0.5625 30.0625 C0.52318359 29.21236328 0.48386719 28.36222656 0.44335938 27.48632812 C0.40146484 26.67744141 0.35957031 25.86855469 0.31640625 25.03515625 C0.27974854 24.2862915 0.24309082 23.53742676 0.20532227 22.76586914 C0.18228937 20.97538674 0.18228937 20.97538674 -1 20 C-1.09860131 18.59651265 -1.13078937 17.18819523 -1.1328125 15.78125 C-1.13410156 14.93175781 -1.13539062 14.08226562 -1.13671875 13.20703125 C-1.13285156 12.31371094 -1.12898438 11.42039062 -1.125 10.5 C-1.12886719 9.60667969 -1.13273437 8.71335937 -1.13671875 7.79296875 C-1.13542969 6.94347656 -1.13414063 6.09398437 -1.1328125 5.21875 C-1.13168457 4.43435547 -1.13055664 3.64996094 -1.12939453 2.84179688 C-1 1 -1 1 0 0 Z " fill="#819FD7" transform="translate(38,25)"/>
<path d="M0 0 C3.33333333 0 6.66666667 0 10 0 C10 4.62 10 9.24 10 14 C8.68 14 7.36 14 6 14 C5.34 12.35 4.68 10.7 4 9 C3.67 10.65 3.34 12.3 3 14 C2.01 14 1.02 14 0 14 C0 9.38 0 4.76 0 0 Z " fill="#D2D8DC" transform="translate(74,71)"/>
<path d="M0 0 C6.6 0 13.2 0 20 0 C20.33 0.99 20.66 1.98 21 3 C21 2.01 21 1.02 21 0 C21.66 0 22.32 0 23 0 C23 1.65 23 3.3 23 5 C15.41 5.33 7.82 5.66 0 6 C0 4.02 0 2.04 0 0 Z " fill="#354C70" transform="translate(39,25)"/>
<path d="M0 0 C3.3 0 6.6 0 10 0 C10 0.99 10 1.98 10 3 C8.02 3 6.04 3 4 3 C4 3.66 4 4.32 4 5 C5.32 5 6.64 5 8 5 C8 5.99 8 6.98 8 8 C7.360625 8.12375 6.72125 8.2475 6.0625 8.375 C5.381875 8.58125 4.70125 8.7875 4 9 C3.67 9.66 3.34 10.32 3 11 C4.98 11 6.96 11 9 11 C9 11.99 9 12.98 9 14 C5.7 14 2.4 14 -1 14 C-1.125 4.5 -1.125 4.5 0 0 Z " fill="#D1DCDF" transform="translate(29,71)"/>
<path d="M0 0 C0.99 0.33 1.98 0.66 3 1 C2 5 2 5 1.375 6.875 C0.86882973 9.74329819 1.42091583 12.16892182 2 15 C0.68 15 -0.64 15 -2 15 C-2 14.34 -2 13.68 -2 13 C-2.66 13 -3.32 13 -4 13 C-4 13.66 -4 14.32 -4 15 C-5.32 15 -6.64 15 -8 15 C-7.855625 14.443125 -7.71125 13.88625 -7.5625 13.3125 C-7.376875 12.549375 -7.19125 11.78625 -7 11 C-6.79375 10.195625 -6.5875 9.39125 -6.375 8.5625 C-5.96518359 5.76208787 -6.29954562 3.72398926 -7 1 C-4.83125748 1.50603992 -3.00032373 1.99983813 -1 3 C-0.67 2.01 -0.34 1.02 0 0 Z " fill="#CACCD9" transform="translate(48,70)"/>
<path d="M0 0 C7.59 0 15.18 0 23 0 C22.67 7.92 22.34 15.84 22 24 C21.67 24 21.34 24 21 24 C20.93941406 23.22914062 20.87882812 22.45828125 20.81640625 21.6640625 C20.69072266 20.15972656 20.69072266 20.15972656 20.5625 18.625 C20.48128906 17.62726562 20.40007813 16.62953125 20.31640625 15.6015625 C20.15034374 13.02072387 20.15034374 13.02072387 19 11 C19.66 11 20.32 11 21 11 C21 8.03 21 5.06 21 2 C14.73 2 8.46 2 2 2 C2.33 4.64 2.66 7.28 3 10 C3 12.93593133 2.77500573 15.76556416 2.5 18.6875 C2.4071875 19.68136719 2.314375 20.67523438 2.21875 21.69921875 C2.1465625 22.45847656 2.074375 23.21773437 2 24 C1.67 24 1.34 24 1 24 C0.67 16.08 0.34 8.16 0 0 Z " fill="#192857" transform="translate(39,39)"/>
<path d="M0 0 C5.28 0 10.56 0 16 0 C16 1.98 16 3.96 16 6 C10.72 6 5.44 6 0 6 C0 4.02 0 2.04 0 0 Z " fill="#303C6A" transform="translate(43,42)"/>
<path d="M0 0 C2.59487555 1.29743778 3.02269781 2.29362471 4 5 C3.66052758 8.39472417 2.64956143 11.03078942 1 14 C2.32 14.33 3.64 14.66 5 15 C3.35 15 1.7 15 0 15 C-0.33 13.68 -0.66 12.36 -1 11 C-2.98 11 -4.96 11 -7 11 C-6.67 10.01 -6.34 9.02 -6 8 C-4.68 8 -3.36 8 -2 8 C-2 7.01 -2 6.02 -2 5 C-3.32 5 -4.64 5 -6 5 C-6 4.34 -6 3.68 -6 3 C-4.02 3 -2.04 3 0 3 C0 2.01 0 1.02 0 0 Z " fill="#2F2B50" transform="translate(39,71)"/>
<path d="M0 0 C3.3 0 6.6 0 10 0 C10 0.99 10 1.98 10 3 C9.01 3 8.02 3 7 3 C7 6.63 7 10.26 7 14 C5.68 14 4.36 14 3 14 C3 10.7 3 7.4 3 4 C2.01 4 1.02 4 0 4 C0 2.68 0 1.36 0 0 Z " fill="#D0D5DC" transform="translate(17,71)"/>
<path d="M0 0 C0.33 0 0.66 0 1 0 C1 4.62 1 9.24 1 14 C1.99 14 2.98 14 4 14 C4 12.02 4 10.04 4 8 C4.66 8.66 5.32 9.32 6 10 C5.625 12.625 5.625 12.625 5 15 C3.35 15 1.7 15 0 15 C-0.33 13.35 -0.66 11.7 -1 10 C-2.65 10 -4.3 10 -6 10 C-4.68 9.67 -3.36 9.34 -2 9 C-2 7.68 -2 6.36 -2 5 C-3.32 5 -4.64 5 -6 5 C-6 4.34 -6 3.68 -6 3 C-4.02 3 -2.04 3 0 3 C0 2.01 0 1.02 0 0 Z " fill="#43417E" transform="translate(73,71)"/>
<path d="M0 0 C1.134375 0.020625 2.26875 0.04125 3.4375 0.0625 C3.4375 1.3825 3.4375 2.7025 3.4375 4.0625 C2.4475 4.3925 1.4575 4.7225 0.4375 5.0625 C1.0975 5.7225 1.7575 6.3825 2.4375 7.0625 C1.1175 7.0625 -0.2025 7.0625 -1.5625 7.0625 C-1.8925 7.7225 -2.2225 8.3825 -2.5625 9.0625 C-4.5625 7.0625 -4.5625 7.0625 -4.75 4 C-4.4768176 -0.27985756 -4.4104386 0.07737612 0 0 Z " fill="#C6CFD7" transform="translate(57.5625,70.9375)"/>
<path d="M0 0 C0.66 0 1.32 0 2 0 C2.33 1.32 2.66 2.64 3 4 C11.415 3.505 11.415 3.505 20 3 C20.33 2.01 20.66 1.02 21 0 C21.66 0 22.32 0 23 0 C23 1.65 23 3.3 23 5 C15.41 5.33 7.82 5.66 0 6 C0 4.02 0 2.04 0 0 Z " fill="#121343" transform="translate(39,25)"/>
<path d="M0 0 C0.268125 0.61875 0.53625 1.2375 0.8125 1.875 C1.95556848 4.2995233 1.95556848 4.2995233 5 6 C5 6.66 5 7.32 5 8 C3.35 8 1.7 8 0 8 C0.33 8.99 0.66 9.98 1 11 C-0.98 11.33 -2.96 11.66 -5 12 C-4.01 11.67 -3.02 11.34 -2 11 C-2.226875 10.29875 -2.45375 9.5975 -2.6875 8.875 C-3.09532639 5.12299725 -1.86377293 3.20568943 0 0 Z " fill="#23305A" transform="translate(52,74)"/>
<path d="M0 0 C0.99 0 1.98 0 3 0 C3 3.63 3 7.26 3 11 C2.01 11 1.02 11 0 11 C-0.19406478 9.35492782 -0.38007935 7.70890406 -0.5625 6.0625 C-0.66691406 5.14597656 -0.77132812 4.22945312 -0.87890625 3.28515625 C-0.91886719 2.53105469 -0.95882812 1.77695313 -1 1 C-0.67 0.67 -0.34 0.34 0 0 Z " fill="#52589E" transform="translate(41,10)"/>
<path d="M0 0 C1.32 0.33 2.64 0.66 4 1 C4 1.66 4 2.32 4 3 C4.66 3 5.32 3 6 3 C6 3.99 6 4.98 6 6 C5.34 6 4.68 6 4 6 C3.67 6.99 3.34 7.98 3 9 C2.34 8.67 1.68 8.34 1 8 C0.40644386 5.35139573 0.25790731 2.70802678 0 0 Z " fill="#CBD6D9" transform="translate(41,71)"/>
<path d="M0 0 C0.33 0 0.66 0 1 0 C1 4.29 1 8.58 1 13 C-0.65 13 -2.3 13 -4 13 C-4 10.03 -4 7.06 -4 4 C-3.67 4 -3.34 4 -3 4 C-3 5.98 -3 7.96 -3 10 C-2.01 10 -1.02 10 0 10 C0 6.7 0 3.4 0 0 Z " fill="#7191BE" transform="translate(44,11)"/>
<path d="M0 0 C0.33 0.99 0.66 1.98 1 3 C-0.98 3 -2.96 3 -5 3 C-5 3.66 -5 4.32 -5 5 C-3.68 5.33 -2.36 5.66 -1 6 C-2.65 6 -4.3 6 -6 6 C-6 5.34 -6 4.68 -6 4 C-6.66 4 -7.32 4 -8 4 C-8 3.01 -8 2.02 -8 1 C-5.36 0.67 -2.72 0.34 0 0 Z " fill="#CEC2D6" transform="translate(38,71)"/>
<path d="M0 0 C0.33 0 0.66 0 1 0 C1.75502821 5.75709008 2.04594393 10.88684572 1.5 16.6875 C1.4071875 17.68136719 1.314375 18.67523438 1.21875 19.69921875 C1.1465625 20.45847656 1.074375 21.21773437 1 22 C0.67 22 0.34 22 0 22 C-0.19696449 18.89635771 -0.38093262 15.79207808 -0.5625 12.6875 C-0.61857422 11.80642578 -0.67464844 10.92535156 -0.73242188 10.01757812 C-0.78076172 9.17001953 -0.82910156 8.32246094 -0.87890625 7.44921875 C-0.9260376 6.66893311 -0.97316895 5.88864746 -1.02172852 5.0847168 C-1 3 -1 3 0 0 Z " fill="#132267" transform="translate(40,41)"/>
<path d="M0 0 C2.31 0 4.62 0 7 0 C7 1.32 7 2.64 7 4 C5.02 4 3.04 4 1 4 C0.67 2.68 0.34 1.36 0 0 Z " fill="#CED8DA" transform="translate(54,71)"/>
<path d="M0 0 C2.97 0.495 2.97 0.495 6 1 C6.33 1.99 6.66 2.98 7 4 C5.8553125 4.2165625 5.8553125 4.2165625 4.6875 4.4375 C1.91827092 4.9632594 1.91827092 4.9632594 -1 6 C-0.67 4.02 -0.34 2.04 0 0 Z " fill="#A6A4BD" transform="translate(65,78)"/>
<path d="M0 0 C2 3 2 3 2 5 C-0.31 5 -2.62 5 -5 5 C-5.33 4.01 -5.66 3.02 -6 2 C-3.03 2.495 -3.03 2.495 0 3 C0 2.01 0 1.02 0 0 Z " fill="#D3DBDD" transform="translate(58,80)"/>
<path d="M0 0 C0.93065133 2.60582371 1.14917407 3.64198224 0.0625 6.25 C-0.4634375 7.11625 -0.4634375 7.11625 -1 8 C-2.32 7.01 -3.64 6.02 -5 5 C-4.67 4.34 -4.34 3.68 -4 3 C-3.01 3.33 -2.02 3.66 -1 4 C-0.67 2.68 -0.34 1.36 0 0 Z " fill="#5B5A93" transform="translate(62,71)"/>
<path d="M0 0 C0.99 0.33 1.98 0.66 3 1 C2.67 2.32 2.34 3.64 2 5 C0.35 4.67 -1.3 4.34 -3 4 C-2.34 3.67 -1.68 3.34 -1 3 C-0.67 2.01 -0.34 1.02 0 0 Z " fill="#B7B3CC" transform="translate(48,70)"/>
</svg>
